<?xml version="1.0" encoding="utf-8"?>
<!-- Generator: Adobe Illustrator 27.1.1, SVG Export Plug-In . SVG Version: 6.00 Build 0)  -->
<svg version="1.1" id="Capa_1" xmlns="http://www.w3.org/2000/svg" xmlns:xlink="http://www.w3.org/1999/xlink" x="0px" y="0px"
	 viewBox="0 0 500 500" style="enable-background:new 0 0 500 500;" xml:space="preserve">
<style type="text/css">
	
		.st0{clip-path:url(#SVGID_00000179628404434280410830000013063793248609258174_);fill:url(#SVGID_00000034773497732322766590000012033308968562331066_);}
	
		.st1{clip-path:url(#SVGID_00000147909953015373578980000003199249089067784632_);fill:url(#SVGID_00000168089745809379111250000008148957498798435500_);}
	
		.st2{clip-path:url(#SVGID_00000058575879585295633190000006769312025603164848_);fill:url(#SVGID_00000024703274036109795230000005313907898952556443_);}
	
		.st3{clip-path:url(#SVGID_00000145779858511169871650000014828484593320951950_);fill:url(#SVGID_00000103956062131847758960000014453395662871435911_);}
</style>
<g>
	<g>
		<defs>
			<path id="SVGID_1_" d="M268.66,267.12c8.95,5.39,17.87,11.05,26.83,17.14c-3.96-32.33-14.36-66.61-45.26-97.39
				c-0.41-0.38-0.84-0.78-1.24-1.22c0.4,0.44,0.82,0.84,1.24,1.22c16.47,16.24,27.6,28.35,37.72,45.62
				c10.36,17.66,14.24,40.07,19.16,59.93c8.8,6.43,17.57,13.29,26.23,20.78c0.44-27.73,4.72-52.72,13.32-78.74
				c-48.6-85.4-145.27-96.4-191.16-103.1C207.58,138.97,267.62,210.33,268.66,267.12"/>
		</defs>
		<clipPath id="SVGID_00000116956431572282647370000018411949117548480183_">
			<use xlink:href="#SVGID_1_"  style="overflow:visible;"/>
		</clipPath>
		
			<linearGradient id="SVGID_00000169556716957652901460000012296944468356079537_" gradientUnits="userSpaceOnUse" x1="-143.8487" y1="556.7386" x2="-138.133" y2="556.7386" gradientTransform="matrix(33.4448 0 0 -33.4448 4966.4819 18842.2852)">
			<stop  offset="0" style="stop-color:#FFE100"/>
			<stop  offset="1" style="stop-color:#FFEE00"/>
		</linearGradient>
		
			<rect x="155.49" y="131.35" style="clip-path:url(#SVGID_00000116956431572282647370000018411949117548480183_);fill:url(#SVGID_00000169556716957652901460000012296944468356079537_);" width="191.16" height="181.84"/>
	</g>
	<g>
		<defs>
			<path id="SVGID_00000039847819031476406750000009630381160002317185_" d="M359.1,220.64c-16.99,33.87-21.33,73.97-16.54,100.71
				c3.12,2.86,6.2,5.74,9.27,8.85c2.99,2.89,5.93,5.91,8.88,9.03c2.05-47.82,10.85-121.96,66.93-153.61
				c-36.79,27.76-48.73,71.65-52.11,106.8c-1.36,14.15-4.06,44.98-1.82,61.23c22.73,26.63,57.99,82.71,57.99,82.71
				c-16.48-141.02-20.29-225.87,59.61-274.86c0.66-0.43,1.44-0.55,2.2-0.76c0.6-0.43,1.22-0.98,1.89-1.35
				c-7.36-0.46-14.94-0.81-22.61-0.81C432.97,158.58,390.56,167.91,359.1,220.64"/>
		</defs>
		<clipPath id="SVGID_00000041976458302487680830000008751546324629957273_">
			<use xlink:href="#SVGID_00000039847819031476406750000009630381160002317185_"  style="overflow:visible;"/>
		</clipPath>
		
			<linearGradient id="SVGID_00000035529010363451824030000003305507558818319006_" gradientUnits="userSpaceOnUse" x1="-137.9228" y1="554.5851" x2="-132.2094" y2="554.5851" gradientTransform="matrix(27.0657 0 0 -27.0657 4073.8174 15307.7012)">
			<stop  offset="0" style="stop-color:#BB0B25"/>
			<stop  offset="0.3826" style="stop-color:#C8064D"/>
			<stop  offset="0.7857" style="stop-color:#D40272"/>
			<stop  offset="1" style="stop-color:#D90080"/>
		</linearGradient>
		
			<rect x="337.74" y="158.58" style="clip-path:url(#SVGID_00000041976458302487680830000008751546324629957273_);fill:url(#SVGID_00000035529010363451824030000003305507558818319006_);" width="157.66" height="277.78"/>
	</g>
	<g>
		<defs>
			<path id="SVGID_00000067931076442097227210000012121730977503987130_" d="M53.38,138.06
				c100.81,132.96,223.75,119.83,325.93,255.61C277.43,269.24,146.32,282.42,53.38,138.06 M4.6,29.93
				c-0.87,329.45,320.62,315.94,433.36,437.9c0,0-23.98-41.45-41.23-65.49c0,0-23.24-35.12-52.05-63.45
				c-75.71-74.35-158.88-92.07-233.42-157.49C62.64,138.73,25.91,83.5,5.07,30.4c0.18-0.21-0.15-0.78-0.37-0.78
				C4.66,29.62,4.6,29.67,4.6,29.93"/>
		</defs>
		<clipPath id="SVGID_00000052080756328948416890000018050042102170079889_">
			<use xlink:href="#SVGID_00000067931076442097227210000012121730977503987130_"  style="overflow:visible;"/>
		</clipPath>
		
			<linearGradient id="SVGID_00000027578187855470722410000004900532114983284377_" gradientUnits="userSpaceOnUse" x1="-146.1418" y1="556.0356" x2="-140.4268" y2="556.0356" gradientTransform="matrix(75.8324 0 0 -75.8324 11086.0176 42414.2422)">
			<stop  offset="0" style="stop-color:#46801E"/>
			<stop  offset="0.3518" style="stop-color:#689A19"/>
			<stop  offset="0.7723" style="stop-color:#8AB415"/>
			<stop  offset="1" style="stop-color:#97BE13"/>
		</linearGradient>
		
			<rect x="3.73" y="29.62" style="clip-path:url(#SVGID_00000052080756328948416890000018050042102170079889_);fill:url(#SVGID_00000027578187855470722410000004900532114983284377_);" width="434.23" height="438.2"/>
	</g>
	<g>
		<defs>
			<path id="SVGID_00000113315305817789037340000007315641854430040976_" d="M244.25,470.38h0.4c3.27-0.32,6.54-0.32,9.81,0h156.77
				c-98.78-78.03-208.41-51.36-299.96-123.53c107.23,65.25,224.59,40.58,300.82,123.53h9.88
				c-99.77-104.68-217.35-77.36-319.82-139.46c-30.49-18.47-58.66-44.72-88.51-78.25C41.37,331.78,122.8,411.48,244.25,470.38"/>
		</defs>
		<clipPath id="SVGID_00000033328418995421608080000000073773927094352054_">
			<use xlink:href="#SVGID_00000113315305817789037340000007315641854430040976_"  style="overflow:visible;"/>
		</clipPath>
		
			<linearGradient id="SVGID_00000054949691475232783820000006602833144887669165_" gradientUnits="userSpaceOnUse" x1="-148.3795" y1="558.2037" x2="-142.4599" y2="558.2037" gradientTransform="matrix(-50.1283 19.6221 19.6221 50.1283 -18024.9805 -24766.8418)">
			<stop  offset="0" style="stop-color:#001880"/>
			<stop  offset="0.249" style="stop-color:#19449C"/>
			<stop  offset="0.5987" style="stop-color:#397BBF"/>
			<stop  offset="0.8595" style="stop-color:#4D9ED5"/>
			<stop  offset="1" style="stop-color:#55ABDD"/>
		</linearGradient>
		
			<polygon style="clip-path:url(#SVGID_00000033328418995421608080000000073773927094352054_);fill:url(#SVGID_00000054949691475232783820000006602833144887669165_);" points="
			489.57,441.47 67.89,621.88 -53.96,281.6 367.69,101.16 		"/>
	</g>
</g>
</svg>
